<svg width="65" height="65" viewBox="0 0 65 65" fill="none" xmlns="http://www.w3.org/2000/svg">
<g clip-path="url(#clip0_21_328)">
<path d="M22.4721 27.7712H7.02251C5.45824 27.7698 3.95843 27.1479 2.85215 26.0419C1.74588 24.936 1.12349 23.4364 1.12155 21.8721V6.6144C1.12349 5.05013 1.74588 3.55051 2.85215 2.44458C3.95843 1.33864 5.45824 0.716722 7.02251 0.715271H22.4721C24.036 0.717205 25.5354 1.33934 26.6413 2.44522C27.7472 3.55111 28.3693 5.05045 28.3712 6.6144V21.8721C28.3693 23.4361 27.7472 24.9354 26.6413 26.0413C25.5354 27.1472 24.036 27.7693 22.4721 27.7712ZM7.02251 5.28399C6.66965 5.28447 6.33134 5.42474 6.08166 5.67408C5.83197 5.92342 5.69124 6.26154 5.69027 6.6144V21.8721C5.69124 22.225 5.83197 22.5631 6.08166 22.8124C6.33134 23.0618 6.66965 23.202 7.02251 23.2025H22.4721C22.8248 23.202 23.1629 23.0617 23.4123 22.8123C23.6617 22.5629 23.802 22.2248 23.8025 21.8721V6.6144C23.802 6.2617 23.6617 5.92359 23.4123 5.67419C23.1629 5.4248 22.8248 5.28447 22.4721 5.28399H7.02251Z" fill="#F2EAD7"/>
<path d="M22.547 63.7636H7.09744C5.533 63.7617 4.03319 63.1393 2.92697 62.0331C1.82074 60.9269 1.19842 59.4271 1.19648 57.8626V42.6068C1.19842 41.0425 1.8208 39.5429 2.92708 38.4369C4.03336 37.331 5.53317 36.7091 7.09744 36.7076H22.547C24.1103 36.7105 25.6087 37.3331 26.7138 38.4389C27.8189 39.5447 28.4406 41.0435 28.4425 42.6068V57.8626C28.441 59.4263 27.8196 60.9255 26.7145 62.0317C25.6093 63.1379 24.1107 63.7607 22.547 63.7636ZM7.09744 41.2764C6.74457 41.2768 6.40627 41.4171 6.15658 41.6665C5.9069 41.9158 5.76617 42.2539 5.7652 42.6068V57.8626C5.76568 58.2158 5.9062 58.5544 6.15594 58.8041C6.40568 59.0539 6.74426 59.1944 7.09744 59.1949H22.547C22.8999 59.1939 23.238 59.0532 23.4873 58.8035C23.7367 58.5538 23.8769 58.2155 23.8774 57.8626V42.6068C23.8769 42.2541 23.7366 41.916 23.4872 41.6666C23.2378 41.4172 22.8997 41.2768 22.547 41.2764H7.09744Z" fill="#F2EAD7"/>
<path d="M58.2708 63.7636H42.8212C41.2567 63.7617 39.7569 63.1393 38.6507 62.0331C37.5445 60.9269 36.9221 59.4271 36.9202 57.8626V42.6068C36.9222 41.0425 37.5445 39.5429 38.6508 38.4369C39.7571 37.331 41.2569 36.7091 42.8212 36.7076H58.2708C59.8347 36.7096 61.3341 37.3317 62.4399 38.4376C63.5458 39.5435 64.168 41.0428 64.1699 42.6068V57.8626C64.1684 59.4269 63.5465 60.9267 62.4406 62.033C61.3346 63.1393 59.835 63.7617 58.2708 63.7636ZM42.8212 41.2855C42.4683 41.286 42.13 41.4262 41.8803 41.6756C41.6306 41.9249 41.4899 42.263 41.4889 42.6159V57.8718C41.4894 58.225 41.6299 58.5635 41.8797 58.8133C42.1294 59.063 42.468 59.2035 42.8212 59.204H58.2708C58.6236 59.2031 58.9617 59.0623 59.2111 58.8126C59.4604 58.563 59.6007 58.2246 59.6012 57.8718V42.6068C59.6007 42.2541 59.4604 41.916 59.211 41.6666C58.9616 41.4172 58.6235 41.2768 58.2708 41.2764L42.8212 41.2855Z" fill="#F2EAD7"/>
<path d="M50.5551 27.7712C47.8848 27.7514 45.2801 26.9414 43.0695 25.4434C40.8588 23.9455 39.1412 21.8265 38.133 19.3538C37.1248 16.881 36.8713 14.1651 37.4044 11.5485C37.9375 8.93185 39.2334 6.53162 41.1286 4.65038C43.0238 2.76913 45.4336 1.4911 48.0541 0.97739C50.6746 0.463681 53.3885 0.737295 55.8537 1.76374C58.319 2.79018 60.4251 4.5235 61.9067 6.74518C63.3883 8.96687 64.179 11.5775 64.179 14.2478C64.1611 17.8464 62.7168 21.2909 60.1628 23.8261C57.6088 26.3612 54.1537 27.78 50.5551 27.7712ZM50.5551 5.29315C48.7884 5.31298 47.0671 5.85497 45.6078 6.8509C44.1485 7.84683 43.0164 9.25219 42.3541 10.8901C41.6917 12.528 41.5286 14.3252 41.8854 16.0556C42.2422 17.786 43.1029 19.3721 44.3591 20.6144C45.6154 21.8567 47.211 22.6997 48.9453 23.0371C50.6795 23.3746 52.4748 23.1915 54.1052 22.5108C55.7356 21.8302 57.1283 20.6825 58.1079 19.2122C59.0874 17.7419 59.6102 16.0146 59.6103 14.2478C59.5958 11.8591 58.6342 9.57371 56.9366 7.89318C55.2389 6.21265 52.9439 5.27428 50.5551 5.28401V5.29315Z" fill="#F2EAD7"/>
</g>
<defs>
<clipPath id="clip0_21_328">
<rect width="63.9621" height="63.9621" fill="white" transform="translate(0.664683 0.258423)"/>
</clipPath>
</defs>
</svg>
