<svg width="38" height="38" viewBox="0 0 38 38" fill="none" xmlns="http://www.w3.org/2000/svg">
<path d="M34.3688 20.6453C34.3365 17.9884 33.5501 15.3961 32.1023 13.1738C30.6546 10.9515 28.606 9.19162 26.1976 8.10154C23.7891 7.01147 21.1212 6.63655 18.5081 7.02093C15.895 7.40532 13.4455 8.53299 11.448 10.2712C9.45056 12.0094 7.98833 14.2857 7.23355 16.832C6.47879 19.3783 6.46288 22.0885 7.18775 24.6437C7.91262 27.1988 9.34805 29.4922 11.325 31.254C13.3019 33.0158 15.7381 34.1725 18.3465 34.5878V24.7061H14.8822V20.6453H18.3465V17.5605C18.2663 16.8433 18.3435 16.1171 18.5729 15.4331C18.8022 14.7492 19.1779 14.1242 19.6735 13.6023C20.1691 13.0804 20.7724 12.6743 21.441 12.4127C22.1096 12.1511 22.8272 12.0403 23.5429 12.0882C24.5819 12.1025 25.6184 12.1957 26.6435 12.367V15.8526H24.9113C24.6127 15.8147 24.3092 15.8448 24.0238 15.9408C23.7381 16.0367 23.4776 16.1959 23.2615 16.4067C23.0453 16.6175 22.879 16.8745 22.7749 17.1586C22.6706 17.4429 22.6313 17.747 22.6595 18.0485V20.6802H26.5049L25.8813 24.7409H22.6769V34.5007C25.9504 33.9798 28.9301 32.2955 31.0752 29.7534C33.2203 27.2114 34.3888 23.98 34.3688 20.6453Z" fill="#106861"/>
</svg>
