<svg width="70" height="70" viewBox="0 0 70 70" fill="none" xmlns="http://www.w3.org/2000/svg">
<g clip-path="url(#clip0_21_280)">
<path d="M46.5312 51.7698V62.3978L51.6232 64.5172V48.9847C50.0237 50.0817 48.3177 51.0148 46.5312 51.7698ZM19.0276 48.9847V64.4112L24.1196 62.2918V51.7698C22.333 51.0148 20.6271 50.0817 19.0276 48.9847ZM35.3253 54.0308C32.9208 54.0321 30.5256 53.7329 28.1953 53.1401V69.1806L35.3253 66.2131L42.4553 69.1804V53.1401C40.125 53.7328 37.7298 54.0321 35.3253 54.0308ZM35.3253 0.29834C21.635 0.29834 10.4971 11.4363 10.4971 25.1267C10.4971 38.8172 21.635 49.9549 35.3253 49.9549C49.0156 49.9549 60.1537 38.817 60.1537 25.1266C60.1537 11.4361 49.0158 0.29834 35.3253 0.29834ZM35.3253 44.7085C24.4719 44.7085 15.642 35.8785 15.642 25.0251C15.642 14.1716 24.4719 5.34167 35.3253 5.34167C46.1787 5.34167 55.0086 14.1716 55.0086 25.0251C55.0086 35.8786 46.1788 44.7085 35.3253 44.7085ZM35.3253 9.41741C26.7193 9.41741 19.7177 16.4189 19.7177 25.0251C19.7177 33.6314 26.7193 40.6326 35.3253 40.6326C43.9313 40.6326 50.9329 33.6311 50.9329 25.025C50.9329 16.4189 43.9314 9.41741 35.3253 9.41741ZM41.7401 34.134L35.3253 30.7616L28.9107 34.134L30.1357 26.9912L24.9462 21.9327L32.1181 20.8905L35.3253 14.3916L38.5326 20.8905L45.7046 21.9327L40.515 26.9912L41.7401 34.134Z" fill="#DEDEDE" stroke="#DEDEDE" stroke-width="0.062463"/>
</g>
<defs>
<clipPath id="clip0_21_280">
<rect width="68.8822" height="68.8822" fill="white" transform="translate(0.884216 0.29834)"/>
</clipPath>
</defs>
</svg>
