<svg width="31" height="31" viewBox="0 0 31 31" fill="none" xmlns="http://www.w3.org/2000/svg">
<path d="M8.13505 6.60043H26.8196L24.2776 15.4977H9.50389M25.5486 20.5819H10.2961L7.75403 4.05835H3.94091M11.5672 25.6661C11.5672 26.368 10.9981 26.9371 10.2961 26.9371C9.59414 26.9371 9.02507 26.368 9.02507 25.6661C9.02507 24.9641 9.59414 24.395 10.2961 24.395C10.9981 24.395 11.5672 24.9641 11.5672 25.6661ZM25.5486 25.6661C25.5486 26.368 24.9796 26.9371 24.2776 26.9371C23.5756 26.9371 23.0065 26.368 23.0065 25.6661C23.0065 24.9641 23.5756 24.395 24.2776 24.395C24.9796 24.395 25.5486 24.9641 25.5486 25.6661Z" stroke="#F2EAD7" stroke-width="2.54208" stroke-linecap="round" stroke-linejoin="round"/>
</svg>
