<svg width="65" height="65" viewBox="0 0 65 65" fill="none" xmlns="http://www.w3.org/2000/svg">
<g clip-path="url(#clip0_21_312)">
<path d="M42.9413 48.5534V58.4222L47.6696 60.3902V45.9672C46.1844 46.9858 44.6003 47.8522 42.9413 48.5534ZM17.4023 45.9672V60.2918L22.1306 58.3238V48.5534C20.4716 47.8523 18.8875 46.9858 17.4023 45.9672ZM32.5359 50.6529C30.3032 50.6541 28.079 50.3762 25.9152 49.8257V64.7205L32.5359 61.965L39.1566 64.7204V49.8257C36.9928 50.3762 34.7686 50.654 32.5359 50.6529ZM32.5359 0.758423C19.8235 0.758423 9.48111 11.1008 9.48111 23.8133C9.48111 36.5259 19.8235 46.8681 32.5359 46.8681C45.2483 46.8681 55.5908 36.5258 55.5908 23.8132C55.5908 11.1006 45.2485 0.758423 32.5359 0.758423ZM32.5359 41.9964C22.4578 41.9964 14.2585 33.7971 14.2585 23.719C14.2585 13.6408 22.4578 5.44151 32.5359 5.44151C42.614 5.44151 50.8133 13.6408 50.8133 23.719C50.8133 33.7973 42.6142 41.9964 32.5359 41.9964ZM32.5359 9.22614C24.5447 9.22614 18.0431 15.7275 18.0431 23.719C18.0431 31.7105 24.5447 38.2116 32.5359 38.2116C40.5271 38.2116 47.0287 31.7103 47.0287 23.7189C47.0287 15.7275 40.5273 9.22614 32.5359 9.22614ZM38.4925 32.1772L32.5359 29.0457L26.5794 32.1772L27.717 25.5447L22.8981 20.8475L29.5578 19.8797L32.5359 13.845L35.5141 19.8797L42.1738 20.8475L37.3549 25.5447L38.4925 32.1772Z" fill="#DEDEDE" stroke="#DEDEDE" stroke-width="0.062463"/>
</g>
<defs>
<clipPath id="clip0_21_312">
<rect width="63.9621" height="63.9621" fill="white" transform="translate(0.554932 0.758423)"/>
</clipPath>
</defs>
</svg>
