<svg width="31" height="31" viewBox="0 0 31 31" fill="none" xmlns="http://www.w3.org/2000/svg">
<path d="M8.40647 6.54083H27.0911L24.549 15.4381H9.77531M25.82 20.5223H10.5675L8.02545 3.99875H4.21233M11.8386 25.6065C11.8386 26.3084 11.2695 26.8775 10.5675 26.8775C9.86556 26.8775 9.29649 26.3084 9.29649 25.6065C9.29649 24.9045 9.86556 24.3354 10.5675 24.3354C11.2695 24.3354 11.8386 24.9045 11.8386 25.6065ZM25.82 25.6065C25.82 26.3084 25.251 26.8775 24.549 26.8775C23.847 26.8775 23.2779 26.3084 23.2779 25.6065C23.2779 24.9045 23.847 24.3354 24.549 24.3354C25.251 24.3354 25.82 24.9045 25.82 25.6065Z" stroke="#F2EAD7" stroke-width="2.54208" stroke-linecap="round" stroke-linejoin="round"/>
</svg>
