<svg width="38" height="38" viewBox="0 0 38 38" fill="none" xmlns="http://www.w3.org/2000/svg">
<path fill-rule="evenodd" clip-rule="evenodd" d="M18.7825 28.3556C23.8844 28.3556 28.0204 24.2196 28.0204 19.1177C28.0204 14.0158 23.8844 9.87988 18.7825 9.87988C13.6806 9.87988 9.54468 14.0158 9.54468 19.1177C9.54468 24.2196 13.6806 28.3556 18.7825 28.3556ZM18.7825 25.2763C22.1838 25.2763 24.9411 22.519 24.9411 19.1177C24.9411 15.7164 22.1838 12.9592 18.7825 12.9592C15.3812 12.9592 12.624 15.7164 12.624 19.1177C12.624 22.519 15.3812 25.2763 18.7825 25.2763Z" fill="#106861"/>
<path d="M28.0203 8.34009C27.17 8.34009 26.4807 9.02942 26.4807 9.87973C26.4807 10.73 27.17 11.4194 28.0203 11.4194C28.8707 11.4194 29.56 10.73 29.56 9.87973C29.56 9.02942 28.8707 8.34009 28.0203 8.34009Z" fill="#106861"/>
<path fill-rule="evenodd" clip-rule="evenodd" d="M2.8533 7.2256C1.84644 9.20168 1.84644 11.7885 1.84644 16.9622V21.2732C1.84644 26.4469 1.84644 29.0338 2.8533 31.0097C3.73896 32.748 5.15217 34.1612 6.89039 35.0468C8.86648 36.0538 11.4533 36.0538 16.627 36.0538H20.938C26.1117 36.0538 28.6986 36.0538 30.6745 35.0468C32.4128 34.1612 33.826 32.748 34.7116 31.0097C35.7186 29.0338 35.7186 26.4469 35.7186 21.2732V16.9622C35.7186 11.7885 35.7186 9.20168 34.7116 7.2256C33.826 5.48738 32.4128 4.07417 30.6745 3.1885C28.6986 2.18164 26.1117 2.18164 20.938 2.18164H16.627C11.4533 2.18164 8.86648 2.18164 6.89039 3.1885C5.15217 4.07417 3.73896 5.48738 2.8533 7.2256ZM20.938 5.26092H16.627C13.9893 5.26092 12.1963 5.26333 10.8104 5.37655C9.46033 5.48685 8.76996 5.68677 8.28836 5.93216C7.12955 6.52261 6.18741 7.46475 5.59696 8.62356C5.35157 9.10516 5.15165 9.79554 5.04135 11.1456C4.92812 12.5315 4.92572 14.3245 4.92572 16.9622V21.2732C4.92572 23.9109 4.92812 25.7038 5.04135 27.0898C5.15165 28.4399 5.35157 29.1303 5.59696 29.6119C6.18741 30.7706 7.12955 31.7127 8.28836 32.3032C8.76996 32.5486 9.46033 32.7486 10.8104 32.8589C12.1963 32.972 13.9893 32.9745 16.627 32.9745H20.938C23.5757 32.9745 25.3686 32.972 26.7546 32.8589C28.1047 32.7486 28.7951 32.5486 29.2767 32.3032C30.4354 31.7127 31.3775 30.7706 31.968 29.6119C32.2134 29.1303 32.4134 28.4399 32.5236 27.0898C32.6368 25.7038 32.6393 23.9109 32.6393 21.2732V16.9622C32.6393 14.3245 32.6368 12.5315 32.5236 11.1456C32.4134 9.79554 32.2134 9.10516 31.968 8.62356C31.3775 7.46475 30.4354 6.52261 29.2767 5.93216C28.7951 5.68677 28.1047 5.48685 26.7546 5.37655C25.3686 5.26333 23.5757 5.26092 20.938 5.26092Z" fill="#106861"/>
</svg>
