<svg width="38" height="38" viewBox="0 0 38 38" fill="none" xmlns="http://www.w3.org/2000/svg">
<g clip-path="url(#clip0_21_395)">
<path d="M14.639 29.2863C16.5895 29.2985 18.523 28.9234 20.3274 28.1826C22.1318 27.4419 23.7712 26.3502 25.1504 24.9709C26.5296 23.5917 27.6213 21.9523 28.3621 20.1479C29.1029 18.3435 29.478 16.41 29.4657 14.4595C29.4657 14.2286 29.4657 14.0092 29.4657 13.7782C30.4768 13.0374 31.3519 12.1271 32.0523 11.0877C31.1003 11.5041 30.0929 11.7802 29.0616 11.9075C30.155 11.256 30.9754 10.2305 31.371 9.02072C30.352 9.63208 29.2346 10.0619 28.0685 10.2909C27.2832 9.45416 26.244 8.89953 25.1118 8.71285C23.9795 8.52616 22.8173 8.71783 21.8049 9.25819C20.7926 9.79855 19.9865 10.6575 19.5115 11.7021C19.0364 12.7467 18.9189 13.9187 19.1771 15.0369C17.1055 14.9352 15.0786 14.3983 13.2283 13.4612C11.378 12.5242 9.74583 11.2079 8.43806 9.59808C7.77862 10.7426 7.57874 12.095 7.87889 13.3814C8.17904 14.6677 8.9568 15.792 10.0547 16.5265C9.24477 16.4952 8.45359 16.2737 7.74522 15.8798V15.9376C7.73802 17.1337 8.14097 18.2961 8.88691 19.2312C9.63284 20.1662 10.6767 20.8174 11.8445 21.0761C11.0912 21.2787 10.3021 21.3103 9.53505 21.1685C9.87314 22.1886 10.5185 23.0791 11.3827 23.7179C12.2468 24.3567 13.2875 24.7125 14.3618 24.7366C12.5249 26.2153 10.2419 27.0292 7.88379 27.0461C7.47034 27.0341 7.05786 26.9994 6.64822 26.9421C9.035 28.4628 11.809 29.2645 14.639 29.2516" fill="#106861"/>
</g>
<defs>
<clipPath id="clip0_21_395">
<rect width="36.9514" height="36.9514" fill="white" transform="translate(0.874573 0.487305)"/>
</clipPath>
</defs>
</svg>
