<svg width="38" height="38" viewBox="0 0 38 38" fill="none" xmlns="http://www.w3.org/2000/svg">
<g clip-path="url(#clip0_21_392)">
<path d="M16.6095 25.2249C15.6407 30.3021 14.4585 35.1696 10.9552 37.7122C9.87291 30.0383 12.5425 24.2749 13.7823 18.1561C11.6682 14.5986 14.0362 7.43884 18.494 9.20262C23.979 11.3725 13.7445 22.43 20.6144 23.8112C27.7885 25.2527 30.7175 11.3635 26.2696 6.84719C19.8419 0.324977 7.55977 6.69866 9.06973 16.0365C9.43708 18.319 11.7953 19.0114 10.0124 22.1627C5.89862 21.2497 4.67143 18.0056 4.82898 13.6802C5.08374 6.59971 11.1902 1.6431 17.3162 0.957048C25.063 0.0899892 32.3336 3.80043 33.3375 11.0881C34.4684 19.314 29.8414 28.2223 21.5571 27.5812C19.3115 27.4065 18.3688 26.2936 16.6095 25.2249Z" fill="#106861"/>
</g>
<defs>
<clipPath id="clip0_21_392">
<rect width="36.9514" height="36.9514" fill="white" transform="translate(0.685303 0.796875)"/>
</clipPath>
</defs>
</svg>
